<svg width="646" height="324" viewBox="0 0 646 324" fill="none" xmlns="http://www.w3.org/2000/svg">
<path d="M642.727 252.596C637.532 270.984 623.661 286.003 602.98 297.41C582.298 308.818 554.821 316.602 522.459 320.52C457.735 328.357 373.517 320.725 285.152 295.757C196.787 270.788 121.029 233.217 69.9774 192.666C44.4512 172.39 25.1118 151.378 13.4581 130.833C1.80492 110.289 -2.1545 90.2319 3.04104 71.8448C8.23658 53.4576 22.1074 38.4382 42.7886 27.0313C63.4709 15.6237 90.9471 7.83938 123.31 3.92088C188.034 -3.91598 272.252 3.71579 360.617 28.6844C448.981 53.653 524.739 91.2246 575.791 131.775C601.317 152.051 620.657 173.064 632.31 193.608C643.964 214.152 647.923 234.209 642.727 252.596Z" stroke="#FF3333" stroke-width="0.5"/>
</svg>
